Coordinates
version=1
nRows=27
nColumns=12
inDegrees=yes

Units are S.I. units (second, meters, Newtons, ...)
Angles are in degrees

endheader
time	SC_y	SC_z	SC_x	AC_y	AC_z	AC_x	GH_y	GH_z	GH_yy	EL_x	PS_y
       0.0              -21.46          6.822          58.71          35.15          -13.7         -17.68         -107.9          3.008         -3.364          127.4           11.3
    0.0372              -21.47          6.822           58.7          35.16          -13.7         -17.68         -107.8          3.007         -3.371          127.4          11.31
   0.07441              -21.47          6.822          58.69          35.16          -13.7         -17.68         -107.8          3.005         -3.379          127.4          11.31
    0.1116              -21.48          6.822          58.68          35.16          -13.7         -17.67         -107.8          3.003         -3.387          127.4          11.32
    0.1488              -21.48          6.822          58.67          35.17          -13.7         -17.67         -107.8          3.001         -3.395          127.4          11.33
     0.186              -21.49          6.823          58.66          35.17          -13.7         -17.67         -107.7          2.999         -3.405          127.4          11.33
    0.2232              -21.49          6.823          58.65          35.17          -13.7         -17.66         -107.7          2.997         -3.414          127.4          11.34
    0.2604               -21.5          6.823          58.64          35.18          -13.7         -17.66         -107.6          2.994         -3.425          127.4          11.35
    0.2976              -21.51          6.823          58.63          35.18          -13.7         -17.66         -107.6          2.991         -3.436          127.4          11.36
    0.3348              -21.51          6.823          58.61          35.18          -13.7         -17.65         -107.6          2.989         -3.448          127.4          11.37
     0.372              -21.52          6.824           58.6          35.19          -13.7         -17.65         -107.5          2.986         -3.461          127.4          11.38
    0.4092              -21.53          6.824          58.58          35.19         -13.69         -17.64         -107.5          2.982         -3.475          127.4          11.39
    0.4464              -21.54          6.824          58.57           35.2         -13.69         -17.63         -107.4          2.979          -3.49          127.4           11.4
    0.4837              -21.55          6.825          58.55           35.2         -13.69         -17.63         -107.4          2.975         -3.507          127.4          11.41
    0.5209              -21.56          6.825          58.53          35.21         -13.69         -17.62         -107.3          2.971         -3.524          127.4          11.43
    0.5581              -21.57          6.825          58.51          35.22         -13.69         -17.61         -107.2          2.966         -3.543          127.4          11.44
    0.5953              -21.58          6.826          58.48          35.22         -13.69         -17.61         -107.1          2.962         -3.564          127.4          11.46
    0.6325               -21.6          6.826          58.46          35.23         -13.69          -17.6         -107.1          2.956         -3.587          127.4          11.48
    0.6697              -21.61          6.827          58.43          35.24         -13.69         -17.59         -107.0           2.95         -3.611          127.4           11.5
    0.7069              -21.63          6.827           58.4          35.25         -13.69         -17.58         -106.9          2.944         -3.638          127.3          11.52
    0.7441              -21.65          6.828          58.37          35.26         -13.68         -17.57         -106.8          2.937         -3.668          127.3          11.54
    0.7813              -21.67          6.829          58.33          35.27         -13.68         -17.55         -106.6          2.929           -3.7          127.3          11.57
    0.8185              -21.69           6.83          58.29          35.28         -13.68         -17.54         -106.5          2.921         -3.737          127.3          11.59
    0.8557              -21.71           6.83          58.25           35.3         -13.68         -17.53         -106.4          2.912         -3.776          127.3          11.63
    0.8929              -21.74          6.831           58.2          35.31         -13.68         -17.51         -106.2          2.901         -3.821          127.3          11.66
    0.9301              -21.77          6.832          58.15          35.33         -13.67         -17.49         -106.0           2.89          -3.87          127.3           11.7
    0.9673               -21.8          6.834          58.08          35.35         -13.67         -17.47         -105.8          2.877         -3.926          127.3          11.74
